<?xml version="1.0" standalone="no"?>
<!DOCTYPE svg PUBLIC "-//W3C//DTD SVG 1.1//EN" "http://www.w3.org/Graphics/SVG/1.1/DTD/svg11.dtd" >
<svg xmlns="http://www.w3.org/2000/svg">
<metadata></metadata>
<defs>
<font id="kaliber_solid_brkregular" horiz-adv-x="1122" >
<font-face units-per-em="2048" ascent="1638" descent="-410" />
<missing-glyph horiz-adv-x="1024" />
<glyph horiz-adv-x="0" />
<glyph horiz-adv-x="682" />
<glyph unicode=" "  horiz-adv-x="1024" />
<glyph unicode="&#x09;" horiz-adv-x="1024" />
<glyph unicode="&#xa0;" horiz-adv-x="1024" />
<glyph unicode="!" horiz-adv-x="481" d="M20 8l9 -8h333l9 8q0 4 3 17.5t5 17.5q2 14 8 53t13.5 82t13.5 82t8 55v9q0 8 -4 17t-15 9h-315l-16 -18l-52 -316v-4v-4zM88 434q0 -8 8 -8h340l148 946v14q0 8 -2 18.5t-15 10.5h-317l-17 -16l-145 -938v-15v-12z" />
<glyph unicode="&#x22;" horiz-adv-x="919" d="M167 866.5q1 14.5 1 16.5v20l78 496l16 16h316q14 0 16 -10t2 -19v-8q0 -4 -2 -6l-76 -504l-16 -16h-326q-10 0 -9 14.5zM594 866v17v20l78 496l16 16h316q14 0 16 -10t2 -19v-14l-78 -504l-16 -16h-324q-10 0 -10 14z" />
<glyph unicode="#" horiz-adv-x="1370" d="M100 432v14q0 4 2 23.5t6.5 41t10.5 39t16 17.5h187l8 13q2 2 6 27.5t9 60t10 72.5t10 63q2 4 -0.5 22.5t-2.5 22.5h-186q-8 0 -8 16v19q0 4 2 22.5t5 38t8 34.5t12 15h198l66 406l16 16h316q14 0 16 -10t2 -16v-15l-57 -377h69l64 402l18 16h316q12 0 14 -10t2 -16v-15 l-57 -381h194q8 0 8 -12v-25v-26q0 -23 -6 -52.5t-20 -29.5h-195q-2 0 -5 -14.5t-5 -22.5q-2 -14 -7 -47t-9.5 -69t-9.5 -66.5t-7 -40.5q-2 -2 -1 -9.5t1 -11.5h187q2 0 8 -8t10 -12v-4v-6q-2 -14 -7 -40t-8 -43.5t-3 -19.5l-9 -12h-204q-4 -23 -12.5 -76t-17.5 -113.5 t-17.5 -115t-12.5 -74.5q0 -4 -3 -17.5t-5 -17.5l-8 -8h-334l-8 8v4v4l61 402h-69q-4 -20 -13.5 -73.5t-18.5 -114t-17.5 -114t-10.5 -73.5q-2 -4 -5 -17.5t-3 -17.5l-5 -5t-5 -3h-332q-8 0 -8 8v4v4l61 406h-198q-8 0 -9 10zM688 571h62l8 9l4 26q4 27 9 61.5t10 72.5 t10 63q2 4 3 20.5t1 20.5h-64l-3 -12q-3 -13 -5 -21q-2 -12 -7 -43t-10.5 -66.5t-10.5 -67.5t-7 -46v-17z" />
<glyph unicode="$" horiz-adv-x="1335" d="M20 8q2 -4 6 -6l3 -2h407q0 -45 -7 -88t-7 -88v-25q0 -8 8 -8h324q2 0 5 3l5 5q0 4 3 13.5t5 13.5q2 8 6 29.5t8.5 46t7.5 46t3 32.5l8 20h409q8 0 11 8q0 4 3 17.5t5 17.5l135 887q2 2 2 12v14v15q0 10 -2 10q0 14 -8 14h-397q0 4 -2.5 18.5t-2.5 18.5q2 25 8.5 61.5 t12.5 72.5t10 61.5t4 27.5l8 17h60q0 -43 -8.5 -85t-8.5 -87v-25q0 -8 9 -8h325l8 8q2 4 5.5 10.5t3.5 8.5l43 280v15q0 8 -2 20t-17 12h-389q0 47 7 92.5t7 92.5q0 8 -2 16t-14 8h-315l-19 -16l-32 -193h-410l-19 -20l-75 -496q0 -2 -1 -9t-1 -11v-19q0 -16 10 -16h407 l-108 -705h-70q2 10 6.5 35t7.5 51.5t7 50t6 33.5v11q0 8 -3 16t-13 8h-318l-16 -16l-52 -316v-6v-4zM530 999q0 4 1 16.5t1 16.5q2 25 8.5 61.5t12.5 72.5t10 61.5t4 27.5l8 17h62q0 -27 -6 -73t-13.5 -90t-15.5 -77t-10 -33h-62zM823 145l107 701h69l-108 -701h-68z" />
<glyph unicode="%" horiz-adv-x="1564" d="M178 961v55l60 383l16 16h743q12 0 15.5 -10t3.5 -16q0 -4 -1 -9l-1 -6l-58 -391l355 432h112q14 0 16.5 -9t2.5 -17q0 -20 -2 -56.5t-17 -52.5l-671 -823h749q6 0 7 -9.5t1 -13.5v-8q-4 -23 -13 -77t-18.5 -114.5t-17.5 -116t-10 -75.5q-2 -4 -5 -17.5t-3 -17.5l-5 -5 t-5 -3h-758q-2 0 -5 3l-5 5v4v4l63 410l-352 -426h-129l-8 8v4v4q2 8 5 24.5t5 33t4 30t2 15.5q2 4 5 9t5 9l666 824h-752zM551 1100h61q2 0 6.5 22.5t9.5 51t9 57.5t4 41h-61q-6 0 -11.5 -21.5t-9.5 -50.5t-6 -57.5t-2 -42.5zM1040 145h68q0 4 5 30t11 63.5t11 60.5v16h-68 z" />
<glyph unicode="&#x26;" horiz-adv-x="1130" d="M20 8v4v4l130 830q2 18 12 27.5t23.5 15.5t26.5 12t21 21q-33 20 -46 28t-13 41v25l59 385l19 16h741q14 0 16.5 -10t2.5 -18v-9q0 -4 -2 -6l-41 -282q-2 -8 -11.5 -18.5t-15.5 -14.5l-280 -137q-2 0 -3 -4v-3q0 -2 3 -2q2 -2 11 -8t13 -8q8 -6 22.5 -13t29 -13.5 t24.5 -11.5l10 -5h16q0 6 2.5 20.5t5.5 31t6 30.5t3 20q2 4 5 13.5t5 11.5q0 8 8 8q2 0 11.5 -2t13.5 -6l282 -154v-67l-110 -717q-2 -4 -5 -17.5t-5 -17.5q0 -8 -9 -8h-972zM395 145h283l76 486q0 2 1 3t1 3l-2 4q-2 2 -11.5 7t-13.5 9q-12 6 -44 23.5t-66.5 36t-66.5 36 t-44 23.5q-2 0 -3 1t-3 1l-1 -1t-3 -1q0 -2 -3 -11t-6 -13zM541 1065q16 0 34.5 9t34.5 18q2 8 6.5 30.5t7.5 47t6 46t5 31.5q0 2 1 11.5t1 13.5h-62l-8 -17l-3 -21q-3 -20 -7 -47.5t-9 -56t-7 -47.5v-18z" />
<glyph unicode="'" horiz-adv-x="503" d="M167 866q-1 -14 9 -14h324l16 16l78 504v12q0 8 -2 18.5t-14 10.5h-316l-18 -16l-76 -494v-22z" />
<glyph unicode="(" horiz-adv-x="935" d="M63 229v11l146 938q0 4 3 9t5 9l59 59q18 16 48 42t59 50.5t50.5 43t23.5 18.5l16 8h528q14 0 16.5 -10t2.5 -18q0 -2 -2 -19.5t-5 -38t-8.5 -38t-11.5 -17.5h-413l-174 -1135h401q12 0 14 -12t2 -20q0 -4 -2 -21.5t-5 -37t-8 -35t-11 -15.5h-545q-2 0 -15.5 13.5 t-19.5 21.5q-8 8 -27.5 30.5t-41 48t-41 49t-27.5 34.5q-10 14 -13.5 18t-3.5 14z" />
<glyph unicode=")" horiz-adv-x="923" d="M20 8v4v4q2 10 4.5 27.5t5.5 35t5 29.5l2 11l18 22h410l174 1135h-406l-8 12v25q0 8 -1 25.5t1 35t8.5 30.5t18.5 13h528q12 0 44 -30.5t66 -70.5t60.5 -81t26.5 -59v-23l-146 -932l-59 -59q-20 -18 -52 -46t-61.5 -53.5t-52.5 -44.5l-22 -18h-555z" />
<glyph unicode="+" horiz-adv-x="1150" d="M125 647v17q0 4 2 23.5t6 40t8 36.5t11 16h307q2 20 10 73.5t17.5 113t18.5 111.5t13 75q0 2 1 10t4 17.5t8.5 16.5t11.5 7h317l6 -7t11 -11v-2v-6l-60 -398h299l8 -12v-25q0 -6 -1 -24.5t-2 -36.5t-5 -32.5t-10 -14.5h-311l-64 -395q0 -2 -3 -8.5t-5 -10.5l-8 -8h-326 q-10 0 -9 7l1 22v22l55 371h-303q-8 0 -8 12z" />
<glyph unicode="," horiz-adv-x="503" d="M8 -152l76 484l18 16h316q10 0 13 -8t3 -16v-9l-78 -491q0 -4 -3 -13.5t-5 -13.5q0 -8 -8 -8h-324q-8 0 -8 8v27v24z" />
<glyph unicode="-" horiz-adv-x="1163" d="M130 649.5q1 10.5 1 14.5t2 22.5t5 37.5t8.5 35.5t11.5 16.5h964l8 -8v-25v-26q0 -23 -4 -50.5t-14 -27.5h-973q-10 0 -9 10.5z" />
<glyph unicode="." horiz-adv-x="491" d="M20 8l9 -8h333l9 8q2 4 4 17.5t4 17.5q2 14 8 53t13.5 82t13.5 82t8 55v9q0 8 -4 17t-15 9h-315l-16 -18l-52 -316v-4v-4z" />
<glyph unicode="/" d="M20 8v4v4q2 8 5.5 24.5t5.5 33t4 30t2 15.5q4 12 10 18l1049 1280h110q14 0 16.5 -10t2.5 -18q0 -20 -2 -56.5t-17 -52.5l-1048 -1280h-129z" />
<glyph unicode="0" d="M20 8v4v4l213 1385l19 16h954q14 0 16.5 -10t2.5 -18v-15l-205 -1331q-2 -4 -5 -17.5t-3 -17.5l-5 -5t-6 -3h-972zM395 145h283l174 1127h-283z" />
<glyph unicode="1" horiz-adv-x="481" d="M20 8l9 -8h333l9 8q2 4 4 17.5t4 17.5l205 1329v14q0 8 -2 18.5t-15 10.5h-317l-17 -16l-213 -1383v-4v-4z" />
<glyph unicode="2" d="M20 8v4v4l111 719q2 4 5 20.5t14 20.5l673 318q0 4 5.5 29.5t11.5 63.5t8 60q2 4 0 12.5t-2 12.5h-277l-28 -178q0 -2 -3 -8.5t-6 -10.5l-8 -8h-323q-4 0 -6 3t-5 5v27v24l43 275l19 16h954q14 0 16.5 -10t2.5 -18v-15l-43 -280q-2 -8 -11.5 -19.5t-15.5 -15.5l-663 -311 l-97 -603h283l35 189l16 16h315q10 0 14.5 -9t4.5 -17v-9q-2 -16 -8 -55t-13.5 -82t-13.5 -82t-8 -53q-2 -4 -5 -17.5t-3 -17.5l-5 -5t-6 -3h-972z" />
<glyph unicode="3" d="M20 8v4v4l52 318l16 16h318q10 0 13 -8t3 -16v-11q-2 -10 -5 -33.5t-7 -51t-8.5 -52t-6.5 -33.5h283l110 705h-409q-10 0 -9 15.5t1 17.5q0 4 2 22.5t5 38t7 35.5t10 16h412q2 0 9 33t14.5 78t12.5 91t5 75h-279l-28 -178q0 -2 -3 -8.5t-6 -10.5l-8 -8h-323q-4 0 -6 3 t-5 5v27v24l43 275l19 16h954q14 0 16.5 -10t2.5 -18v-15l-205 -1331q-2 -4 -5 -17.5t-3 -17.5l-5 -5t-6 -3h-972z" />
<glyph unicode="4" horiz-adv-x="1130" d="M165 866l1 17v22l76 494l18 18h315q14 0 16.5 -10t2.5 -18q0 -4 -1 -9l-1 -6l-55 -377h282l64 402l16 18h315q14 0 16.5 -10t2.5 -18v-15l-205 -1331q-2 -4 -5 -17.5t-3 -17.5l-5 -5t-5 -3h-332q-8 0 -8 8v4v4l127 834h-623q-10 0 -9 16z" />
<glyph unicode="5" d="M20 8v4v4l52 318l16 16h318q10 0 13 -8t3 -16v-11q-2 -10 -5 -33.5t-7 -51t-8.5 -52t-6.5 -33.5h283l110 705h-622q-10 0 -10 16v19q0 4 1 11t1 9l75 496l19 16h954q14 0 16.5 -10t2.5 -18v-15l-43 -280q0 -2 -3 -8.5t-5 -10.5l-9 -8h-325q-8 0 -9 8v25q0 45 8.5 87 t8.5 85h-273l-8 -17q0 -2 -4 -27.5t-10 -61.5t-12 -72.5t-9 -61.5q0 -4 1.5 -18.5t1.5 -18.5h612q8 0 8 -14q2 0 2 -10v-15v-14q0 -10 -2 -12l-135 -887q-2 -4 -5 -17.5t-3 -17.5l-5 -5t-6 -3h-972z" />
<glyph unicode="6" d="M20 8v4v4l213 1385l19 16h954q14 0 16.5 -10t2.5 -18v-15l-43 -280q0 -2 -3 -8.5t-5 -10.5l-9 -8h-325q-8 0 -9 8v25q0 45 8.5 87t8.5 85h-273l-8 -17q0 -2 -4 -27.5t-10 -61.5t-12 -72.5t-9 -61.5q0 -4 1.5 -18.5t1.5 -18.5h612q8 0 8 -14q2 0 2 -10v-15v-14 q0 -10 -2 -12l-135 -887q-2 -4 -5 -17.5t-3 -17.5l-5 -5t-6 -3h-972zM395 145h283l108 701h-282z" />
<glyph unicode="7" horiz-adv-x="1126" d="M197 1075v25v26l43 273l16 16h956q12 0 14.5 -10t2.5 -19v-14l-43 -280q-4 -16 -8 -24.5t-17 -18.5l-469 -406l-94 -600q-2 -4 -5 -17.5t-3 -17.5l-5 -5t-5 -3h-332q-8 0 -8 8v4v4l75 496q4 27 13.5 43t29.5 33l453 393l47 289h-283l-28 -178q0 -2 -3 -8.5t-5 -8.5 q-6 -10 -11 -10h-323q-8 0 -8 10z" />
<glyph unicode="8" d="M20 8v4v4l130 830q2 18 12 27.5t23.5 15.5t26.5 12t21 21q-33 20 -46 28t-13 41v25l59 385l19 16h954q14 0 16.5 -10t2.5 -18v-15l-60 -393q-2 -10 -12 -20.5t-23.5 -17.5t-25.5 -13t-17 -8v-9q8 0 28 -13t24 -21l1 -11q1 -10 1 -14q0 -6 -1 -18.5t-1 -16.5l-119 -776 q-2 -4 -5 -17.5t-3 -17.5l-5 -5t-6 -3h-972zM395 145h283l108 701h-282zM530 999h277q2 0 9 33t14.5 77t13.5 90t6 73h-275l-8 -17q0 -2 -4 -27.5t-10 -61.5t-12 -72.5t-9 -61.5q0 -4 -1 -16t-1 -17z" />
<glyph unicode="9" horiz-adv-x="1120" d="M155 866l1 17v22l75 494l19 18h954q14 0 16.5 -10t2.5 -18v-15l-205 -1331q-2 -4 -5 -17.5t-3 -17.5q-2 -2 -5.5 -5t-5.5 -3h-331q-8 0 -9 8v4v4l127 834h-622q-10 0 -9 16zM528 997h277q2 0 9 33t14.5 78t13.5 91t6 73h-275l-8 -19q0 -2 -5 -27.5t-11 -60.5t-11.5 -71.5 t-7.5 -61.5q0 -4 -1 -17.5t-1 -17.5z" />
<glyph unicode=":" horiz-adv-x="481" d="M20 8l9 -8h333l9 8q0 4 3 17.5t5 17.5q2 14 8 53t13.5 82t13.5 82t8 55v9q0 8 -4 17t-15 9h-315l-16 -18l-52 -316v-4v-4zM190 1075q0 -8 9 -8h325l3 2t5 6q2 2 5.5 8.5t3.5 8.5l43 280v14q0 8 -2 18.5t-15 10.5h-317l-17 -16l-43 -273v-26v-25z" />
<glyph unicode=";" horiz-adv-x="483" d="M-4 -152l78 486l16 16h316q12 0 15 -8t3 -16v-9l-78 -493q0 -4 -3 -13.5t-5 -13.5l-8 -8h-326q-8 0 -8 8v27v24zM193 1077v27v24l43 273l16 18h315q14 0 16.5 -10t2.5 -18v-15l-43 -282q0 -2 -3 -7.5t-5 -9.5l-9 -8h-325q-8 0 -8 8z" />
<glyph unicode="&#x3c;" horiz-adv-x="1138" d="M125 664v24q0 25 5 54.5t20 33.5l880 410q29 12 38 15t26 3h34h27q25 0 29 -2q10 -2 9 -12t-1 -14q0 -27 -3 -66t-32 -53l-749 -352l647 -355q6 -4 8 -12t2 -14q0 -2 -1 -6l-1 -3q-2 -12 -6 -35.5t-7 -40t-3 -18.5l-9 -8h-120l-777 418q-14 8 -15 14.5t-1 18.5z" />
<glyph unicode="=" horiz-adv-x="1157" d="M113 545v12q0 2 2 19.5t5 37t7 35t10 15.5h973q8 0 8 -9v-4v-4q-2 -10 -4 -27.5t-5 -35t-5 -28.5l-2 -11l-8 -8h-973q-8 0 -8 8zM145 750q0 6 1 26.5t4.5 44t8.5 41t13 17.5h965q8 0 8 -11v-22v-25q0 -20 -3 -45.5t-14 -25.5h-983z" />
<glyph unicode="&#x3e;" horiz-adv-x="1150" d="M57 229v29q0 27 4.5 54.5t20.5 37.5l768 357l-655 360l-1 9t-1 14q0 6 1 24.5t4 37.5t8 34.5t13 15.5h111l760 -409q4 0 13 -6.5t13 -10.5q0 -2 3 -4t5 -4v-31q0 -20 1 -53t-19 -45l-911 -426h-129q-6 0 -7.5 6t-1.5 10z" />
<glyph unicode="?" horiz-adv-x="1120" d="M190 1075v25v26l43 273l17 16h956q12 0 14.5 -10t2.5 -19v-14l-60 -391q-2 -4 -7 -13.5t-11 -13.5l-443 -206l-53 -322h-340q-8 0 -8 8v15v12q2 14 8 53t13.5 82t13.5 82t8 55q2 6 4 22.5t12 20.5l437 205q12 6 21 46t15.5 88t9.5 93t3 62h-277l-28 -178q0 -2 -3 -8.5 t-6 -8.5q-6 -10 -10 -10h-323q-8 0 -9 10zM233 8v4v4l52 316l16 18h315q10 0 14.5 -9t4.5 -17v-9q-2 -16 -8 -55t-13.5 -82t-13.5 -82t-8 -53q-2 -4 -5 -17.5t-3 -17.5q-2 -2 -5.5 -5t-5.5 -3h-331q-8 0 -9 8z" />
<glyph unicode="@" horiz-adv-x="1335" d="M20 8v4v4l213 1383l19 18h1167q14 0 16.5 -10t2.5 -18v-15l-181 -1161h-768q-6 0 -7 6t-1 10v11l146 938q2 4 8 15t8 15h410q6 0 8 9.5t2 19.5t-1 20.5t-1 14.5h-492l-174 -1131h830q12 0 14 -12t2 -20q0 -4 -2 -21.5t-5 -37t-8 -35t-12 -15.5h-1185zM856 358h70l106 701 h-69z" />
<glyph unicode="A" horiz-adv-x="1112" d="M12 16l213 1383l17 16h956q12 0 14 -10t2 -19v-14l-204 -1329q-2 -4 -4 -17.5t-5 -17.5l-8 -8h-334v68l119 776h-282l-125 -801q-2 -4 -5.5 -17.5t-3.5 -17.5l-5 -5t-5 -3h-323zM522 997h275q2 0 10 33t15 77t13.5 90t6.5 73h-277l-8 -17q0 -2 -4 -27.5t-10 -61.5 t-11.5 -72.5t-7.5 -59.5q-2 -2 -2 -18v-17z" />
<glyph unicode="B" horiz-adv-x="1112" d="M12 16l213 1383l17 16h956q12 0 14 -10t2 -19v-14l-59 -391q-2 -12 -12 -22.5t-22.5 -17.5t-25 -12t-18.5 -7v-11q8 0 27.5 -13t23.5 -19l1 -11q1 -10 1 -16q0 -4 -1 -17.5t-1 -15.5l-118 -776q-2 -4 -4 -17.5t-5 -17.5l-8 -8h-964zM387 145h281l110 699h-282zM522 997 h275q2 0 10 33t15 77t13.5 90t6.5 73h-277l-8 -17q0 -2 -4 -27.5t-10 -61.5t-11.5 -72.5t-7.5 -59.5q-2 -2 -2 -18v-17z" />
<glyph unicode="C" horiz-adv-x="1112" d="M12 16l213 1383l17 16h956q12 0 14 -10t2 -19v-14l-43 -280q0 -2 -3 -8.5t-5 -8.5q-2 -4 -5 -7l-3 -3h-326q-4 0 -8 10v25q0 43 8.5 85t8.5 85h-277l-174 -1125h281l34 187l17 18h315q10 0 14.5 -9t4.5 -17v-9q-2 -16 -8.5 -55t-13.5 -82t-13 -82t-8 -53 q-2 -4 -5.5 -17.5t-3.5 -17.5l-8 -8h-964z" />
<glyph unicode="D" horiz-adv-x="1126" d="M20 16l213 1383l17 16h692l25 -8q12 -6 43.5 -19.5t67.5 -27.5t68 -27.5t44 -19.5q14 -4 15 -13.5t1 -19.5v-18l-170 -1108q-2 -4 -5 -17.5t-5 -17.5q0 -4 -3 -10.5t-5 -6.5l-273 -102h-708zM395 145h283l174 1125h-283z" />
<glyph unicode="E" d="M20 16l213 1385l19 16h954q14 0 16.5 -10t2.5 -18v-15l-43 -280q0 -2 -3 -8.5t-5 -10.5l-9 -8h-325q-8 0 -9 8v25q0 45 8.5 87t8.5 85h-273l-8 -17q0 -2 -4 -27.5t-10 -61.5t-12 -72.5t-9 -61.5q0 -4 1.5 -18.5t1.5 -18.5h399q8 0 8 -14l1 -9t1 -14q0 -10 -1 -27.5 t-3 -35.5t-8 -31.5t-14 -13.5h-414l-109 -705h283l35 189l16 16h315q10 0 14.5 -9t4.5 -17v-9q-2 -16 -8 -55t-13.5 -82t-13.5 -82t-8 -53q-2 -4 -5 -17.5t-3 -17.5l-5 -5t-6 -3h-964z" />
<glyph unicode="F" d="M20 8v4v4l213 1385l19 16h954q14 0 16.5 -10t2.5 -18v-15l-43 -280q0 -2 -3 -8.5t-5 -10.5l-9 -8h-325q-8 0 -9 8v25q0 45 8.5 87t8.5 85h-273l-8 -17q0 -2 -4 -27.5t-10 -61.5t-12 -72.5t-9 -61.5q0 -4 1.5 -18.5t1.5 -18.5h399q8 0 8 -14l1 -9t1 -14q0 -10 -1 -27.5 t-3 -35.5t-8 -31.5t-14 -13.5h-414l-125 -807q0 -4 -3 -17.5t-5 -17.5q-2 -2 -4 -5t-5 -3h-333z" />
<glyph unicode="G" d="M20 8v4v4l213 1385l19 16h954q14 0 16.5 -10t2.5 -18v-15l-43 -280q0 -2 -3 -8.5t-5 -10.5l-9 -8h-325q-8 0 -9 8v25q0 45 8.5 87t8.5 85h-279l-174 -1127h283l110 705h-196q-8 0 -8 14v19q0 6 2 23.5t5 36t8 33.5t11 15h537q8 0 8 -10q2 0 2 -10v-15v-14q0 -10 -2 -12 l-135 -887q-2 -4 -5 -17.5t-3 -17.5l-5 -5t-6 -3h-972z" />
<glyph unicode="H" d="M20 8v4v4l213 1385l19 16h315q12 0 14.5 -10t2.5 -18v-15l-56 -375h283l63 402l17 16h315q14 0 16.5 -10t2.5 -18v-15l-205 -1331q-2 -4 -5 -17.5t-3 -17.5l-5 -5t-6 -3h-331q-8 0 -8 8v4v4l124 830h-282l-125 -803q0 -4 -3 -17.5t-5 -17.5q-2 -2 -4 -5t-5 -3h-333z" />
<glyph unicode="I" d="M20 8v4v4q2 10 4.5 27.5t5.5 35t5 29.5l2 11l18 22h303l174 1135h-299l-8 14v25q0 6 -1 23.5t1 35t8.5 30.5t18.5 13h954q14 0 16.5 -10t2.5 -18q0 -2 -2 -19.5t-5.5 -38t-8.5 -38t-11 -17.5h-307l-174 -1135h295q12 0 14 -12t2 -20q0 -4 -2 -21.5t-5 -37t-8 -35 t-12 -15.5h-972z" />
<glyph unicode="J" d="M20 8v4v4l52 318l16 16h318q10 0 13 -8t3 -16v-11q-2 -10 -5 -33.5t-7 -51t-8.5 -52t-6.5 -33.5h283l196 1256l17 16h315q14 0 16.5 -10t2.5 -18v-15l-205 -1331q-2 -4 -5 -17.5t-3 -17.5l-5 -5t-6 -3h-972z" />
<glyph unicode="K" d="M20 8v4v4l213 1385l19 16h315q12 0 14.5 -10t2.5 -18v-15l-60 -401v-17q4 0 13.5 3.5t11.5 5.5q31 14 78 35.5t90 42t75 35.5l31 16l51 307l17 16h315q14 0 16.5 -10t2.5 -18v-15l-43 -280q-2 -8 -11.5 -19.5t-15.5 -15.5l-520 -248l436 -240l25 -24v-4v-4l-76 -496 q-2 -4 -5 -17.5t-3 -17.5l-5 -5t-6 -3h-331q-8 0 -8 8v4v4l75 504v6v2q-2 4 -8 10.5t-8 8.5l-242 129l-100 -633q0 -4 -3 -17.5t-5 -17.5q-2 -2 -4 -5t-5 -3h-333z" />
<glyph unicode="L" d="M20 8v4v4l213 1383l17 16h315q14 0 16.5 -10t2.5 -19v-14l-189 -1227h283l33 187l16 18h317q10 0 13.5 -9t3.5 -17v-9q-2 -16 -8 -55t-13.5 -82t-13.5 -82t-8 -53q-2 -4 -4 -17.5t-4 -17.5l-9 -8h-972z" />
<glyph unicode="M" horiz-adv-x="1335" d="M20 8v4v4l213 1383l19 18h1167q14 0 16.5 -10t2.5 -18v-15l-205 -1331q-2 -4 -5 -17.5t-3 -17.5l-5 -5t-6 -3h-331q-8 0 -9 8v4v4l191 1256h-70l-190 -1229q0 -4 -3 -17.5t-5 -17.5q0 -8 -9 -8h-331q-2 0 -5 3t-6 5v4v4l193 1256h-70l-190 -1229q0 -4 -3 -17.5t-5 -17.5 l-9 -8h-333z" />
<glyph unicode="N" d="M20 8v4v4l213 1385l19 16h315q10 0 17.5 -18.5t7.5 -24.5l145 -794h8l129 821l17 16h315q14 0 16.5 -10t2.5 -18v-15l-205 -1331q-2 -4 -5 -17.5t-3 -17.5l-5 -5t-6 -3h-339l-154 862l-129 -819q0 -4 -3 -17.5t-5 -17.5q-2 -2 -4 -5t-5 -3h-333z" />
<glyph unicode="O" d="M20 8v4v4l213 1385l19 16h954q14 0 16.5 -10t2.5 -18v-15l-205 -1331q-2 -4 -5 -17.5t-3 -17.5l-5 -5t-6 -3h-972zM395 145h283l174 1127h-283z" />
<glyph unicode="P" d="M20 8v4v4l213 1385l19 16h954q14 0 16.5 -10t2.5 -18v-15l-78 -504l-17 -20h-626l-125 -807q0 -4 -3 -17.5t-5 -17.5q-2 -2 -4 -5t-5 -3h-333zM530 999h277q2 0 9 33t14.5 77t13.5 90t6 73h-275l-8 -17q0 -2 -4 -27.5t-10 -61.5t-12 -72.5t-9 -61.5q0 -4 -1 -16t-1 -17z " />
<glyph unicode="Q" d="M20 8v4v6l213 1383l19 16h954q14 0 16.5 -10t2.5 -18v-15l-205 -1331q-2 -4 -5 -17.5t-3 -17.5q-2 -2 -5 -6t-6 -4h-67q16 -20 38.5 -46t22.5 -54q0 -6 -2 -23.5t-5 -36t-8 -34t-11 -15.5h-111q-10 0 -20.5 10.5t-14.5 16.5q-8 8 -29.5 31.5t-44 51t-43 52t-28.5 35.5 q-2 2 -5 6t-3 6h-641l-3 4t-6 6zM395 145h140q0 12 -8.5 22.5t-18.5 20t-18.5 19.5t-8.5 22v11q2 12 6.5 35.5t7.5 40t3 18.5l18 16h102q2 0 8.5 -3t8.5 -5q2 -4 11 -12t18.5 -18.5t17.5 -18.5t12 -10l11 16l147 973h-283z" />
<glyph unicode="R" d="M20 8v4v4l213 1385l19 16h954q14 0 16.5 -10t2.5 -18v-15l-60 -393q-2 -2 -7 -12.5t-11 -12.5l-103 -34q8 -18 24.5 -23.5t32 -8.5t28 -11.5t12.5 -32.5q0 -4 -1 -14.5t-1 -12.5l-119 -776q-2 -4 -5 -17.5t-3 -17.5l-5 -5t-6 -3h-331q-8 0 -8 8v4v4l124 830h-282 l-125 -803q0 -4 -3 -17.5t-5 -17.5q-2 -2 -4 -5t-5 -3h-333zM530 999h277q2 0 9 33t14.5 77t13.5 90t6 73h-275l-8 -17q0 -2 -4 -27.5t-10 -61.5t-12 -72.5t-9 -61.5q0 -4 -1 -16t-1 -17z" />
<glyph unicode="S" d="M20 8v4v4l52 318l16 16h318q10 0 13 -8t3 -16v-11q-2 -10 -5 -33.5t-7 -51t-8.5 -52t-6.5 -33.5h283l110 705h-622q-10 0 -10 16v19q0 4 1 11t1 9l75 496l19 16h954q14 0 16.5 -10t2.5 -18v-15l-43 -280q0 -2 -3 -8.5t-5 -10.5l-9 -8h-325q-8 0 -9 8v25q0 45 8.5 87 t8.5 85h-273l-8 -17q0 -2 -4 -27.5t-10 -61.5t-12 -72.5t-9 -61.5q0 -4 1.5 -18.5t1.5 -18.5h612q8 0 8 -14q2 0 2 -10v-15v-14q0 -10 -2 -12l-135 -887q-2 -4 -5 -17.5t-3 -17.5l-5 -5t-6 -3h-972z" />
<glyph unicode="T" horiz-adv-x="1120" d="M222 1338q1 -18 1 -23v-25l8 -14h299l-188 -1233v-18v-15q0 -10 10 -10h340l197 1276h307q6 0 11 17.5t8.5 38t5.5 37.5t2 20q0 8 -2 18t-17 10h-954q-12 0 -18 -13q-7 -12 -9 -30q-1 -12 -1 -24v-12z" />
<glyph unicode="U" d="M20 8v4v4l213 1385l19 16h315q12 0 14.5 -10t2.5 -18v-15l-189 -1229h283l196 1256l17 16h315q14 0 16.5 -10t2.5 -18v-15l-205 -1331q-2 -4 -5 -17.5t-3 -17.5l-5 -5t-6 -3h-972z" />
<glyph unicode="V" horiz-adv-x="1126" d="M94 446v15l146 938l16 16h315q14 0 16.5 -10t2.5 -19v-14l-154 -1005q-2 0 -2 -7v-6q0 -10 1 -15t9 -15q2 -2 13.5 -16.5t26 -32t29.5 -35t26 -27.5q0 -8 8 -8h4h4q10 10 43 38.5t59 49.5q20 23 35 33t25 32l162 1041l16 16h317q12 0 14.5 -10t2.5 -19v-14l-148 -946 l-534 -418q-14 -8 -27 -8h-8l-393 401q-16 16 -20.5 22.5t-4.5 22.5z" />
<glyph unicode="W" horiz-adv-x="1335" d="M20 8v4v4l213 1383l19 18h315q12 0 14.5 -10t2.5 -18v-15l-189 -1229h70l197 1254l16 18h315q14 0 16.5 -10t2.5 -18v-9q0 -4 -2 -6l-187 -1229h68l196 1254l17 18h315q14 0 16.5 -10t2.5 -18v-15l-205 -1331q-2 -4 -5 -17.5t-3 -17.5l-5 -5t-6 -3h-1185z" />
<glyph unicode="X" d="M20 8v4v4l111 719q2 6 5 21.5t14 19.5l288 137l8 9q-18 14 -60 32.5t-86 41t-77 49t-33 55.5v26l43 275l19 16h315q12 0 14.5 -10t2.5 -18q0 -70 -17.5 -137.5t-17.5 -137.5v-31q6 -4 21.5 -15t31.5 -23.5t30.5 -22.5t20.5 -14q8 -8 17 -9l153 95l51 307l17 16h315 q14 0 16.5 -10t2.5 -18v-15l-43 -280q-2 -8 -11.5 -19.5t-15.5 -15.5l-281 -137l-1 -1t-1 -3q0 -8 31 -26t71 -39.5t81 -41.5t59 -35q2 -2 5 -4t3 -4v-59l-102 -666q-2 -4 -5 -17.5t-3 -17.5l-5 -5t-6 -3h-331q-8 0 -8 8v4v4l110 727v9q-2 2 -13 11t-27.5 21.5t-26.5 18.5 q-8 4 -28 17.5t-24 17.5h-4h-6q-4 -2 -16.5 -8.5t-16.5 -10.5q-6 -4 -22.5 -13t-33.5 -20.5t-33.5 -20.5t-22.5 -13l-9 -9l-110 -700q0 -4 -3 -17.5t-5 -17.5q-2 -2 -4 -5t-5 -3h-333z" />
<glyph unicode="Y" horiz-adv-x="1126" d="M195 1098q0 4 1 15t1 13l43 273l16 16h315q14 0 16.5 -10t2.5 -19q0 -70 -18.5 -136t-18.5 -138q0 -4 1 -14.5t1 -14.5q6 -4 20.5 -15t31 -23.5t30.5 -23.5t20 -15l17 -9l153 95l52 307l16 16h317q12 0 14.5 -10t2.5 -19v-14l-43 -280q-2 -8 -10.5 -19.5t-14.5 -15.5 l-307 -144q-6 -4 -11 -13t-7 -13l-138 -887h-340q-10 0 -9 11.5t1 13.5v18l127 836l1 5t1 7q0 6 -1 12t-9 10q-12 6 -45 23.5t-70 38t-69.5 39t-44.5 26.5q-23 12 -34 23.5t-11 34.5z" />
<glyph unicode="Z" d="M20 8v4v4l52 318q2 8 7 14t9 10l719 623l45 291h-283l-28 -178q0 -2 -3 -8.5t-6 -10.5l-8 -8h-323q-4 0 -6 3t-5 5v27v24l43 275l19 16h954q14 0 16.5 -10t2.5 -18v-15l-43 -280q-4 -18 -8.5 -25.5t-18.5 -17.5l-715 -621l-45 -285h283l35 189l16 16h315q10 0 14.5 -9 t4.5 -17v-9q-2 -16 -8 -55t-13.5 -82t-13.5 -82t-8 -53q-2 -4 -5 -17.5t-3 -17.5l-5 -5t-6 -3h-972z" />
<glyph unicode="[" horiz-adv-x="907" d="M20 8v4v4l213 1383l17 16h743q12 0 14.5 -10t2.5 -19q0 -2 -2 -19t-5.5 -37.5t-8.5 -38t-11 -17.5h-414l-174 -1133h402q12 0 14 -12t2 -20q0 -4 -2 -21.5t-5 -37t-7 -35t-11 -15.5h-759z" />
<glyph unicode="\" horiz-adv-x="1150" d="M241 1329.5q-1 18.5 1 37.5t8 34.5t18 15.5h115l661 -1288v-16q0 -4 -2 -22.5t-5 -39t-8 -36t-11 -15.5h-123l-653 1272v33q0 6 -1 24.5z" />
<glyph unicode="]" horiz-adv-x="907" d="M20 8v4v4q2 10 4.5 27.5t5.5 35t5 29.5l2 11l18 22h408l176 1133h-406l-8 14l-1 10q-1 9 -1 13v24q0 27 3 53.5t24 26.5h743q12 0 14.5 -10t2.5 -19v-14l-205 -1329q-2 -4 -4 -17.5t-4 -17.5l-9 -8h-759z" />
<glyph unicode="a" horiz-adv-x="1124" d="M20 8l9 -8h972q8 0 9 8q2 4 5 17.5t3 17.5l137 887v24v27q0 8 -8 8h-965q-2 0 -4 -3t-4 -5q-2 -4 -5 -13.5t-3 -13.5l-43 -272v-16q0 -4 -1 -15.5t9 -11.5h334l8 8q0 12 6 55t13 76q4 31 8 44.5t6 21.5h270q0 -4 2 -20.5t2 -22.5q-4 -25 -10 -62t-11 -71.5t-9.5 -60 t-4.5 -27.5l-8 -13h-614q-6 0 -11.5 -8t-8.5 -18.5t-5 -18.5t-2 -10l-76 -496v-4v-4zM395 145l43 273h283l-43 -273h-283z" />
<glyph unicode="b" horiz-adv-x="1124" d="M20 8v4v4l213 1383l17 16h317q12 0 14.5 -10t2.5 -19v-14l-58 -379h621q8 0 8 -12v-27v-24l-137 -887q0 -4 -3 -17.5t-5 -17.5q0 -8 -9 -8h-972zM395 145h283l108 699h-282z" />
<glyph unicode="c" horiz-adv-x="1124" d="M20 8v4v4l146 938q0 4 3 13.5t5 13.5q2 2 4 5t4 3h965q8 0 8 -8v-27v-24l-45 -291h-340q-8 0 -8 10v15q0 47 8 91t8 89h-274l-109 -699h283l33 187l18 18h315q10 0 13.5 -9t3.5 -17v-9q-2 -16 -8 -55t-13.5 -82t-13.5 -82t-8 -53q0 -4 -3 -17.5t-5 -17.5q0 -8 -9 -8h-972 z" />
<glyph unicode="d" d="M20 8v4v4l146 940q2 10 8 23.5t8 15.5h627l65 406l17 16h315q14 0 16.5 -10t2.5 -18v-15l-205 -1331q-2 -4 -5 -17.5t-3 -17.5l-5 -5t-6 -3h-972zM395 145h283l108 701h-282z" />
<glyph unicode="e" horiz-adv-x="1124" d="M20 8v4v4l146 938q0 4 3 13.5t5 13.5q2 2 4 5t4 3h965q8 0 8 -8v-27v-24l-80 -508h-637l-43 -277h283l33 187l18 18h315q10 0 13.5 -9t3.5 -17v-9q-2 -16 -8 -55t-13.5 -82t-13.5 -82t-8 -53q0 -4 -3 -17.5t-5 -17.5q0 -8 -9 -8h-972zM463 571h274l8 9l5 26q4 25 10 60.5 t11 72.5t9 62q0 6 1 22.5t1 20.5h-276l-3 -12q-3 -13 -5 -21q-2 -12 -7.5 -43t-9.5 -66.5t-9 -67.5t-7 -46q-2 -2 -2 -8v-9z" />
<glyph unicode="f" d="M20 8v4v4l213 1385l19 16h954q14 0 16.5 -10t2.5 -18v-15l-43 -280q0 -2 -3 -8.5t-5 -10.5l-9 -8h-325q-8 0 -9 8v25q0 45 8.5 87t8.5 85h-273l-8 -17q0 -2 -4 -27.5t-10 -61.5t-12 -72.5t-9 -61.5q0 -4 1.5 -18.5t1.5 -18.5h399q8 0 8 -14l1 -9t1 -14q0 -10 -1 -27.5 t-3 -35.5t-8 -31.5t-14 -13.5h-414l-125 -807q0 -4 -3 -17.5t-5 -17.5q-2 -2 -4 -5t-5 -3h-333z" />
<glyph unicode="g" horiz-adv-x="1128" d="M-36 -417l1 22v22l43 281l17 18h323q10 0 10 -12v-16q0 -45 -8 -88t-8 -89h270q4 0 11.5 33t13.5 78t11 91t5 75h-620l-3 3t-5 7v4v4l145 938q0 4 3 13.5t5 13.5l8 8h965q8 0 8 -8v-27v-24l-205 -1329l-8 -17l-8 -8h-965q-10 0 -9 7zM399 145h283l109 699h-283z" />
<glyph unicode="h" horiz-adv-x="1124" d="M20 8v4v4l213 1383l17 16h317q12 0 14.5 -10t2.5 -19v-14l-58 -379h621q8 0 8 -12v-27v-24l-137 -887q0 -4 -3 -17.5t-5 -17.5q0 -8 -9 -8h-333l-9 8v4v4l127 828h-282l-125 -801q-2 -4 -4 -17.5t-4 -17.5l-9 -8h-333z" />
<glyph unicode="i" horiz-adv-x="481" d="M20 8l9 -8h333l9 8q2 4 4 17.5t4 17.5l137 887v24v27l-5 5t-5 3h-324q-2 0 -4 -3t-4 -5q-2 -4 -5 -13.5t-3 -13.5l-146 -938v-4v-4zM190 1075q0 -8 9 -8h325l3 2t5 6q2 2 5.5 8.5t3.5 8.5l43 280v14q0 8 -2 18.5t-15 10.5h-317l-17 -16l-43 -273v-26v-25z" />
<glyph unicode="j" horiz-adv-x="1157" d="M-6 -417l2 22v22l43 283l16 16h326q10 0 9 -13t-1 -15q0 -45 -8 -88t-8 -89h276l193 1235q0 4 3 13.5t5 13.5q0 8 8 8h324q8 0 8 -8q2 -2 2 -12v-15v-14q0 -8 -2 -10l-205 -1329q0 -2 -3 -8.5t-5 -10.5q-2 -2 -4 -5t-4 -3h-965q-10 0 -10 7zM866 1077v25v26l43 273l17 16 h315q14 0 16.5 -10t2.5 -18v-15l-43 -280q0 -2 -3.5 -8.5t-5.5 -8.5q-2 -4 -5 -7l-3 -3h-326q-8 0 -8 10z" />
<glyph unicode="k" d="M20 8v4v4l213 1385l19 16h315q12 0 14.5 -10t2.5 -18v-15l-60 -401v-17q4 0 13.5 3.5t11.5 5.5q31 14 78 35.5t90 42t75 35.5l31 16l51 307l17 16h315q14 0 16.5 -10t2.5 -18v-15l-43 -280q-2 -8 -11.5 -19.5t-15.5 -15.5l-520 -248l436 -240l25 -24v-4v-4l-76 -496 q-2 -4 -5 -17.5t-3 -17.5l-5 -5t-6 -3h-331q-8 0 -8 8v4v4l75 504v6v2q-2 4 -8 10.5t-8 8.5l-242 129l-100 -633q0 -4 -3 -17.5t-5 -17.5q-2 -2 -4 -5t-5 -3h-333z" />
<glyph unicode="l" horiz-adv-x="481" d="M20 8l9 -8h333l9 8q2 4 4 17.5t4 17.5l205 1329v14q0 8 -2 18.5t-15 10.5h-317l-17 -16l-213 -1383v-4v-4z" />
<glyph unicode="m" horiz-adv-x="1337" d="M20 8v4v4l146 938q0 4 3 13.5t5 13.5q2 2 4 5t4 3h1178q8 0 8 -8v-27v-24l-137 -887q0 -4 -3 -17.5t-5 -17.5q0 -8 -9 -8h-331q-2 0 -5.5 3t-5.5 5v4v4l127 828h-69l-125 -801q0 -4 -3 -17.5t-5 -17.5l-9 -8h-333l-9 8v4v4l127 828h-69l-125 -801q-2 -4 -5 -17.5 t-3 -17.5l-9 -8h-333z" />
<glyph unicode="n" horiz-adv-x="1124" d="M20 8v4v4l146 938q0 4 3 13.5t5 13.5q2 2 4 5t4 3h965q8 0 8 -8v-27v-24l-137 -887q0 -4 -3 -17.5t-5 -17.5q0 -8 -9 -8h-333l-9 8v4v4l127 828h-282l-125 -801q-2 -4 -4 -17.5t-4 -17.5l-9 -8h-333z" />
<glyph unicode="o" horiz-adv-x="1124" d="M20 8v4v4l146 938q0 4 3 13.5t5 13.5q2 2 4 5t4 3h965q8 0 8 -8v-27v-24l-137 -887q0 -4 -3 -17.5t-5 -17.5q0 -8 -9 -8h-972zM395 145h283l108 699h-282z" />
<glyph unicode="p" horiz-adv-x="1128" d="M-36 -417l1 22v22l205 1327q0 4 3 13.5t5 13.5l8 8h965q8 0 8 -8v-27v-24l-137 -887q0 -4 -3 -17.5t-5 -17.5t-5 -7l-3 -3h-629l-62 -397l-8 -17l-5 -5t-5 -3h-324q-10 0 -9 7zM399 145h283l109 699h-283z" />
<glyph unicode="q" horiz-adv-x="1124" d="M20 8v4v6l146 938q0 2 3 11.5t5 13.5q2 2 4 5t4 3h965q8 0 8 -8v-27v-24l-205 -1329l-8 -17l-8 -8h-326q-10 0 -10 7l2 22v22l55 371h-626l-3 3t-6 7zM395 145h283l108 699h-282z" />
<glyph unicode="r" horiz-adv-x="1124" d="M20 8v4v4l146 938q0 4 3 13.5t5 13.5q2 2 4 5t4 3h965q8 0 8 -8v-27v-24l-45 -291h-340q-8 0 -8 10v15q0 47 8 91t8 89h-274l-125 -801q-2 -4 -4 -17.5t-4 -17.5l-9 -8h-333z" />
<glyph unicode="s" horiz-adv-x="1124" d="M20 8v4v4l52 316l16 18h315q12 0 15.5 -9t3.5 -15v-11q-2 -10 -5 -33.5t-7 -51t-8.5 -52t-6.5 -33.5h283l43 277h-625q-6 0 -7 10t-1 14v15l78 493q0 4 3 13.5t5 13.5q2 2 4 5t4 3h965q8 0 8 -8v-27v-24l-45 -291h-340q-8 0 -8 10v15q0 47 8 91t8 89h-272l-3 -12 q-3 -13 -5 -21l-7.5 -45t-9.5 -67.5t-9 -66.5t-7 -44q-2 -2 -1 -10.5t1 -10.5h612q2 0 8.5 -8t10.5 -12v-4v-6l-78 -494q0 -4 -3 -17.5t-5 -17.5q0 -8 -9 -8h-972z" />
<glyph unicode="t" horiz-adv-x="1150" d="M166 883q0 4 2 22.5t5 38t8 35.5t12 16h307q0 8 3 31t7 47.5t8 47t6 32.5q0 2 2 10t5.5 17.5t8.5 16.5t11 7h315q2 0 8.5 -6t8.5 -10v-4v-6q-2 -10 -5.5 -36t-7.5 -55.5t-7 -55t-5 -36.5h299q8 0 8 -14v-23v-26q0 -27 -6 -54.5t-20 -27.5h-305l-132 -850h-340 q-10 0 -10 10v15q0 4 1 10t1 8l123 807h-303q-9 0 -9 13z" />
<glyph unicode="u" horiz-adv-x="1124" d="M20 8v4v4l146 938q0 4 3 13.5t5 13.5q2 2 4 5t4 3h324q2 0 5 -3l5 -5v-27v-24l-121 -785h283l127 809q0 4 3 13.5t5 13.5l8 8h326q8 0 8 -8v-27v-24l-137 -887q0 -4 -3 -17.5t-5 -17.5q0 -8 -9 -8h-972z" />
<glyph unicode="v" horiz-adv-x="1136" d="M94 446v15l76 495q2 2 5 11.5t5 13.5q0 8 8 8h324q8 0 8 -8l1 -10t1 -15q0 -4 -1 -14t-1 -12l-84 -563l-1 -5q-1 -6 -1 -8q0 -10 1 -15t9 -15q2 -2 13.5 -16.5t26 -32t29.5 -35t26 -27.5l8 -8h4h4q6 6 24.5 21.5t39 34t39 33.5t24.5 21q8 6 20.5 18.5t14.5 24.5l94 598 q0 2 3 11.5t5 13.5l8 8h326q8 0 8 -8v-25v-26l-78 -502l-536 -420q-14 -8 -27 -8h-8l-401 410q-12 12 -14.5 18t-2.5 18z" />
<glyph unicode="w" horiz-adv-x="1337" d="M20 8l9 -8h1185q8 0 9 8q2 4 5 17.5t3 17.5l137 887v24v27q0 8 -8 8h-326l-8 -8q-2 -4 -5 -13.5t-3 -13.5l-127 -809h-70l121 785v24v27q-2 2 -4 5t-6 3h-324l-8 -8q-2 -4 -5 -13.5t-3 -13.5l-127 -809h-70l119 785q2 2 2 10v14v15q0 10 -2 12q0 8 -8 8h-324q-2 0 -4 -3 t-4 -5q-2 -4 -5 -13.5t-3 -13.5l-146 -938v-4v-4z" />
<glyph unicode="x" horiz-adv-x="1124" d="M20 8v4v4l54 330l313 150l-248 135q-14 8 -15 14t-1 19v18l43 272q0 4 3 13.5t5 13.5q2 2 4 5t4 3h324q2 0 5 -3l5 -5v-25q0 -72 -18.5 -139t-18.5 -137q0 -12 14.5 -29.5t35 -35t41 -30t30.5 -14.5l16 9q10 6 30 17t41.5 23.5t37.5 22.5t20 14q10 4 12.5 13.5t4.5 19.5 l43 264q0 4 3 13.5t5 13.5l8 8h326q8 0 8 -8v-27v-24l-43 -287l-315 -151l256 -142q6 -4 7 -12t1 -14v-9q-2 -16 -8 -55t-13.5 -82t-13.5 -82t-8 -53q0 -4 -3 -17.5t-5 -17.5q0 -8 -9 -8h-333l-9 8v4v4l43 283v12v13q0 2 -8 8q-6 6 -19 16t-28.5 20.5t-29 19.5t-17.5 13 q-2 2 -8 4.5t-8 4.5h-4h-5q-2 0 -8 -3.5t-10 -5.5q-18 -10 -49 -29.5t-52.5 -32.5t-25.5 -15l-8 -17q-2 -14 -8 -52t-13.5 -80t-13.5 -80t-8 -52q-2 -4 -5 -17.5t-3 -17.5l-9 -8h-333z" />
<glyph unicode="y" d="M-42 -417l1 22v22l43 281l16 18h324q10 0 10 -12v-16q0 -45 -8 -88t-8 -89h270q4 0 11.5 33t13.5 78t11 91t5 75h-620l-3 3q-4 3 -6 7v4v4l146 938q0 4 3 13.5t5 13.5l8 8h324q4 0 6 -3t4 -5v-27v-24l-121 -785h283l127 809q0 4 3 13.5t5 13.5l8 8h326q8 0 8 -8v-27v-24 l-205 -1329l-8 -17l-8 -8h-965q-10 0 -9 7z" />
<glyph unicode="z" horiz-adv-x="1124" d="M20 8v4v4l54 330l680 320q8 2 12 17t6 34.5t3 42t1 41.5v43h-270l-3 -12q-3 -13 -5 -21t-6.5 -31.5t-8.5 -50.5t-7 -50.5t-3 -31.5l-8 -8h-334q-10 0 -9 11.5t1 15.5v16l43 272q0 4 3 13.5t5 13.5q2 2 4 5t4 3h965q8 0 8 -8v-27v-24l-43 -287l-690 -326l-27 -172h283 l33 187l18 18h315q10 0 13.5 -9t3.5 -17v-9q-2 -16 -8 -55t-13.5 -82t-13.5 -82t-8 -53q0 -4 -3 -17.5t-5 -17.5q0 -8 -9 -8h-972z" />
<glyph unicode="&#xad;" horiz-adv-x="1163" d="M130 649.5q1 10.5 1 14.5t2 22.5t5 37.5t8.5 35.5t11.5 16.5h964l8 -8v-25v-26q0 -23 -4 -50.5t-14 -27.5h-973q-10 0 -9 10.5z" />
<glyph unicode="&#xc6;" horiz-adv-x="1761" d="M20 8v4v4l213 1383l17 18h1597q12 0 14.5 -10t2.5 -18v-15l-43 -282q0 -2 -3 -7.5t-6 -9.5l-8 -8h-325q-8 0 -9 8v25q0 43 8.5 86t8.5 86h-273l-8 -19q0 -2 -4 -27.5t-10 -60.5t-12 -71.5t-9 -61.5q0 -4 2.5 -19.5t2.5 -19.5h397q8 0 8 -12l1 -9t1 -16q0 -8 -1 -25.5 t-3 -35.5t-8 -31.5t-15 -13.5h-411l-109 -705h281l35 187l16 18h315q10 0 14.5 -9t4.5 -17v-9q-2 -16 -8 -55t-13.5 -82t-13.5 -82t-8 -53q-2 -4 -5 -17.5t-3 -17.5l-9 -8h-972q-2 0 -5 3t-6 5v4v4l127 828h-282l-125 -801q-2 -4 -4 -17.5t-4 -17.5l-9 -8h-333zM530 997h275 q2 0 10 33t15.5 78t13.5 91t6 73h-275l-8 -19q0 -2 -5 -27.5t-11 -60.5t-11 -71.5t-8 -61.5q0 -4 -1 -17.5t-1 -17.5z" />
<glyph unicode="&#xe6;" horiz-adv-x="1765" d="M20 8v4v4l78 496q0 2 1 10t4 18.5t8.5 18.5t11.5 8h614l8 13q0 2 4.5 27.5t9.5 61.5t11 72.5t10 61.5q0 4 -1 20.5t-1 22.5h-270q-2 0 -5 -13.5t-5 -21.5q-2 -10 -5.5 -32.5t-6.5 -48t-7 -49.5t-6 -32l-8 -8h-334q-10 0 -9 10.5t1 14.5v16l43 274q2 12 8 23.5t8 9.5h1606 q8 0 8 -8v-25v-26l-80 -508h-637l-43 -277h281l35 189l16 16h318q10 0 13 -9t3 -17v-9q-2 -16 -8 -55t-13.5 -82t-13.5 -82t-8 -53q0 -4 -3 -17.5t-5 -17.5q-2 -2 -4 -5t-5 -3h-1613zM395 145h283l43 273h-283zM1104 571h274l8 9l4 26q5 27 10 61.5t10 72.5t9 63q2 4 3 20.5 t1 22.5h-276l-3 -14q-3 -13 -5 -21q-2 -12 -7.5 -43t-10.5 -66.5t-10 -67.5t-7 -44v-19z" />
<glyph unicode="&#x2000;" horiz-adv-x="815" />
<glyph unicode="&#x2001;" horiz-adv-x="1630" />
<glyph unicode="&#x2002;" horiz-adv-x="815" />
<glyph unicode="&#x2003;" horiz-adv-x="1630" />
<glyph unicode="&#x2004;" horiz-adv-x="543" />
<glyph unicode="&#x2005;" horiz-adv-x="407" />
<glyph unicode="&#x2006;" horiz-adv-x="271" />
<glyph unicode="&#x2007;" horiz-adv-x="271" />
<glyph unicode="&#x2008;" horiz-adv-x="203" />
<glyph unicode="&#x2009;" horiz-adv-x="326" />
<glyph unicode="&#x200a;" horiz-adv-x="90" />
<glyph unicode="&#x2010;" horiz-adv-x="1163" d="M130 649.5q1 10.5 1 14.5t2 22.5t5 37.5t8.5 35.5t11.5 16.5h964l8 -8v-25v-26q0 -23 -4 -50.5t-14 -27.5h-973q-10 0 -9 10.5z" />
<glyph unicode="&#x2011;" horiz-adv-x="1163" d="M130 649.5q1 10.5 1 14.5t2 22.5t5 37.5t8.5 35.5t11.5 16.5h964l8 -8v-25v-26q0 -23 -4 -50.5t-14 -27.5h-973q-10 0 -9 10.5z" />
<glyph unicode="&#x2012;" horiz-adv-x="1163" d="M130 649.5q1 10.5 1 14.5t2 22.5t5 37.5t8.5 35.5t11.5 16.5h964l8 -8v-25v-26q0 -23 -4 -50.5t-14 -27.5h-973q-10 0 -9 10.5z" />
<glyph unicode="&#x2013;" horiz-adv-x="1185" d="M129 649.5q1 10.5 1 14.5t2 22.5t5 37.5t9 35.5t12 16.5h987l8 -8v-25v-26q0 -23 -4 -50.5t-14 -27.5h-997q-10 0 -9 10.5z" />
<glyph unicode="&#x2014;" horiz-adv-x="2210" d="M129 649.5q2 10.5 2 14.5t4 22.5t10.5 37.5t17.5 35.5t24 16.5h1974l16 -8v-25v-26q0 -23 -8 -50.5t-29 -27.5h-1992q-21 0 -19 10.5z" />
<glyph unicode="&#x202f;" horiz-adv-x="326" />
<glyph unicode="&#x205f;" horiz-adv-x="407" />
<glyph unicode="&#x25fc;" horiz-adv-x="993" d="M0 0v993h993v-993h-993z" />
</font>
</defs>
</svg>
